<?xml version="1.0" encoding="UTF-8"?>
<svg id="Layer_2" data-name="Layer 2" xmlns="http://www.w3.org/2000/svg" viewBox="0 0 564.78 155.68">
  <defs>
    <style>
      .cls-1 {
        fill: #fff;
      }
    </style>
  </defs>
  <g id="Layer_1_copy" data-name="Layer 1 copy">
    <g>
      <path class="cls-1" d="M324.1,61.15l-3.56-.93-.35-5.22-10.21.31c-2.05.06-2.97,3.72-2.4,5.75l-4.97.41-.04,40.18-14.61.02-.02-40.38-4.26-.39-.04-5.71-10.99-.17-3.38,6.25-4.34.38-.05,40.02h-14.4s-.04-60.1-.04-60.1l14.27-.05.24,6.92,5.37-3.2.33-3.66,20.91-.04.18,6.24,10.57-.07.19-6.17h23.82s.26,5.52.26,5.52l5.64.22-.13,5.46,6.64.97v47.98s-14.66.01-14.66.01l.04-40.53Z"/>
      <path class="cls-1" d="M417.15,53.42l.02,36.7-5.26.21-.3,4.24c-1.72.2-3.82.45-4.65,1.29-1.12,1.13-1.33,3.15-1.09,5.76l-28.83.08-.15-5.64-5.47.09-.03,27.42-14.59-.03-.09-82.01,14.43.04.05,6.98,5.71-2.7.75-4.32,28.28-.02.23,5.62,5.39.07.07,6.2h5.52ZM397.52,88.02l.7-3.58,4.18-.97.04-23.74-4.16-.15-.22-4.54-18.4.02c-1.68,1.41-3.17,3.86-3.99,6.11l-4.15.37-.06,21.93,5.39.29,2.13,4.33,18.55-.08Z"/>
      <path class="cls-1" d="M558.02,101.66h-40.51c-.15-2.29-.48-4.25-1.32-6.28l-4.69.02v-10.62s11.57-.24,11.57-.24l.45,3.52h26.61s-.03-9.81-.03-9.81l-28-.13-.27-4.68-5-.05-.57-5.06-4.71-.41.02-15.93,4.93-.98.22-4.04,5.03-.58.18-4.82,36.4-.04.77,5.76,5.5.28-.02,10.7h-9.8s-.7-3.26-.7-3.26l-27.84.03c-.43,3.13,0,5.52,1.02,8.09l1.07,2.7h27.21s.23,3.51.23,3.51c.05.71,2.34.49,3.48.36l.88,4.02,4.6.44.07,18.76-3.87.54-.49,2.5c-.09.48-1.57.73-2.1.97l-.31,4.74Z"/>
      <path class="cls-1" d="M232.43,101.66l-12.94.02-.06-7.25c-3.14-1.15-3.55,2.57-7.59,3.11l-.36,4.14h-27s-.12-5.11-.12-5.11l-5.16-.3-.07-4.47-5.54-.18v-50.06s14.71-.05,14.71-.05l.06,43.22,4.69.29.54,3.12,14.3-.15c.92,0,2.86-1.08,3.22-1.87s.41-2.52.49-4.18l6.22-.26.02-40.12h14.59s0,60.11,0,60.11Z"/>
      <path class="cls-1" d="M493.48,101.58l-13.45.15v-7.27c-2.15-.86-3.74,1.28-5.03,2.39-.47.41-2.1.82-2.67,1.08-.68.32-.76,1.89-.74,3.71l-27.03.05-.15-4.85-3.19-.58-.24-4.3h-5.79s.04-50.38.04-50.38l14.4-.03.03,42.45,1.6,4.06,17.72-.17c2.43-.02,3.73-3.97,3.36-5.87l6.79-.38v-40.1s14.38,0,14.38,0v60.03Z"/>
    </g>
    <g>
      <polygon class="cls-1" points="241.54 148.56 231.59 148.56 231.6 151.68 245.42 151.68 245.39 155.66 226.8 155.66 226.82 138 245.32 137.94 245.41 141.93 231.61 141.9 231.58 144.81 241.49 144.79 241.54 148.56"/>
      <polygon class="cls-1" points="440.72 155.64 436.36 155.57 425.1 144.6 424.94 155.66 420.33 155.65 420.32 138.02 424.71 137.95 435.98 148.77 436.24 137.99 440.71 137.92 440.72 155.64"/>
      <polygon class="cls-1" points="297.19 155.61 293.04 155.66 281.42 144.64 281.32 155.66 276.72 155.63 276.74 138.03 281 137.92 292.55 148.8 292.62 137.97 297.19 138.03 297.19 155.61"/>
      <path class="cls-1" d="M343.15,151.69l.09-2.92-4.51.03.03-3.44,9.4-.02-.02,7.31-3.35,3.02-12.44-.04-3.82-3.27-.05-10.96,3.94-3.46h13.04s2.49,2.43,2.49,2.43v2.12s-4.76-.4-4.76-.4l-8.67-.2c-.52-.01-1.49.81-1.48,1.31l.06,7.15c0,.49.9,1.36,1.46,1.36h8.58Z"/>
      <polygon class="cls-1" points="486.01 148.56 476.45 148.58 476.35 151.66 489.61 151.62 489.66 155.67 472.02 155.66 472.05 137.95 489.63 137.94 489.65 141.94 476.37 141.89 476.38 144.71 486.03 144.8 486.01 148.56"/>
      <polygon class="cls-1" points="389.03 155.67 379.47 155.66 379.49 152.05 381.86 151.82 381.9 141.9 379.48 141.6 379.5 137.96 388.99 137.94 389.01 141.66 386.48 141.74 386.49 151.88 388.98 151.98 389.03 155.67"/>
    </g>
    <g>
      <path class="cls-1" d="M70.19,120.78l-10.08,1.22.42,11.4-29.5,1.69-.02-24.8,5.89-.18-.15-10.07-8.59-.12-.02-10.07-9.8.07-.05,10.11H2.33s-.01-10-.01-10l8.25-.05.05-9.72,8.32-.05.08-8.36,11.74-.06.17-4.04,9.96-.1.11-7.64-10.18.63-.31-19.16h-13.69s-.43-26.86-.43-26.86l33.15-3.24,16.8-.22-.46-7.29L107.99.15l.63,11.17,14.48-.26.13,11.06,6.79-.37.06,11.16,8.96-.34,1.46,33.98-9.14.75.05,12.58-9.65.25.07,9.9,9.9-.11.16,15.37,8.28.08.03,10.71,8.95.15.45,17.09-13,.49-24.52,1.5-.22-10.76-8.02.35-.69-16.48-10.16.87-.53-11.62-22.7,2.14.45,21.01ZM106.75,59.83l-.96-18.68-8.06.4-.24-8.08-33.35,3.3,2.86,34.05,32.12-2.84-.04-7.39,7.67-.76ZM52.42,80.1l-.18-8.24-11.42.37.04,7.91,11.56-.04ZM38.1,81.64l-5.91-.1c-.71-1.42-3.11-1.86-4.07-.83l-.04,9.09h9.87s.14-8.16.14-8.16Z"/>
      <polygon class="cls-1" points="151.72 93.24 151.11 97.38 146.05 97.45 145.96 89.23 141.62 89.24 141.55 79.98 150.56 80.01 150.74 83.34 156.47 83.4 156.44 92.98 151.72 93.24"/>
      <polygon class="cls-1" points="89.7 146.23 79.43 146.3 79.4 135.58 89.69 135.54 89.7 146.23"/>
      <polygon class="cls-1" points="10.51 67.61 .06 67.69 0 57.14 10.51 57.15 10.51 67.61"/>
      <polygon class="cls-1" points="139.08 10.87 128.84 10.98 128.83 0 139.06 .03 139.08 10.87"/>
      <polygon class="cls-1" points="161.81 67.68 151.53 67.66 151.52 57.15 161.82 57.18 161.81 67.68"/>
    </g>
  </g>
</svg>