<?xml version="1.0" encoding="UTF-8"?>
<svg id="Layer_2" data-name="Layer 2" xmlns="http://www.w3.org/2000/svg" viewBox="0 0 631.82 183.14">
  <defs>
    <style>
      .cls-1 {
        fill: #fff;
      }
    </style>
  </defs>
  <g id="Layer_1-2" data-name="Layer 1">
    <g>
      <path class="cls-1" d="M87.99,151.2l-12.62,1.52.52,14.27-36.93,2.11-.03-31.05,7.38-.23-.19-12.6-10.76-.15-.03-12.6-12.27.09-.06,12.66-19.96.02v-12.54s10.32-.06,10.32-.06l.06-12.17,10.41-.07.1-10.47,14.7-.07.21-5.05,12.47-.12.14-9.56-12.74.78-.39-23.98-17.13-.02-.54-33.6,41.49-4.05,21.03-.27-.57-9.12L135.31.19l.79,13.98,18.13-.33.17,13.84,8.49-.46.07,13.97,11.21-.43,1.83,42.53-11.44.94.06,15.75-12.08.31.08,12.39,12.39-.14.2,19.24,10.37.1.04,13.4,11.2.18.56,21.39-16.28.62-30.7,1.88-.28-13.47-10.03.44-.86-20.63-12.71,1.09-.66-14.55-28.41,2.68.56,26.29ZM133.76,74.89l-1.21-23.39-10.1.5-.3-10.11-41.75,4.13,3.59,42.62,40.21-3.55-.05-9.25,9.61-.95ZM65.74,100.27l-.23-10.32-14.3.46.06,9.91,14.47-.05ZM47.82,102.19l-7.39-.13c-.89-1.77-3.89-2.33-5.09-1.04l-.05,11.38h12.36s.18-10.22.18-10.22Z"/>
      <g>
        <path class="cls-1" d="M283.28,100.18l5.24.24-.11,11.76-12.88-.05-.09-5.98-5.11-1.06-.32-5.39-3.92-.3-.25-5.17-4.58-.27-.13-4.89-4.11-.19-.26-4.38-8.79.11v27.54s-12.91-.02-12.91-.02V38.92s43.89-.01,43.89-.01l.04,4.9,4.44.14v4.78s5.04.23,5.04.23l.06,25.38-4.78.19-.21,5.02-4.07.49-.64,4.15-5.56.13c.61,1.59,1.24,2.58,2.57,3.79l.23,3.59,5.01.23.09,4.72,2.11,3.53ZM275.61,70.03l-.11-14.92-3.71-.2-.31-3.73-23.48.05-.04,21.51,23.14.04.65-2.27,3.86-.48Z"/>
        <path class="cls-1" d="M429.84,76.73l-3.11-.82-.3-4.57-8.93.27c-1.79.05-2.59,3.25-2.1,5.03l-4.35.36-.03,35.13-12.77.02-.02-35.31-3.72-.34-.04-4.99-9.61-.15-2.96,5.46-3.8.33-.04,35h-12.6s-.04-52.56-.04-52.56l12.48-.05.21,6.05,4.7-2.8.29-3.2,18.28-.03.16,5.45,9.25-.06.17-5.4h20.83s.23,4.83.23,4.83l4.93.2-.12,4.77,5.8.85v41.95s-12.82.01-12.82.01l.04-35.44Z"/>
        <path class="cls-1" d="M508.12,69.96l.02,32.09-4.6.19-.26,3.71c-1.5.17-3.34.39-4.07,1.13-.98.99-1.16,2.76-.95,5.04l-25.21.07-.13-4.93-4.78.08-.03,23.98-12.76-.03-.08-71.71,12.62.03.04,6.1,4.99-2.36.66-3.77,24.73-.02.2,4.91,4.71.06.06,5.42h4.83ZM490.96,100.22l.61-3.13,3.66-.84.03-20.76-3.64-.14-.19-3.97-16.09.02c-1.47,1.23-2.77,3.37-3.49,5.35l-3.63.32-.05,19.18,4.71.26,1.86,3.78,16.22-.07Z"/>
        <path class="cls-1" d="M625.91,112.15h-35.42c-.13-2-.42-3.72-1.16-5.49h-4.1s0-9.27,0-9.27l10.11-.21.39,3.08h23.27s-.02-8.58-.02-8.58l-24.48-.11-.23-4.1-4.37-.04-.5-4.43-4.12-.36v-13.93s4.33-.85,4.33-.85l.19-3.53,4.4-.5.15-4.22,31.83-.03.67,5.04,4.81.24-.02,9.36h-8.57s-.61-2.85-.61-2.85l-24.35.02c-.38,2.74,0,4.83.89,7.07l.94,2.36h23.79s.2,3.07.2,3.07c.04.62,2.04.43,3.04.31l.77,3.52,4.03.39.06,16.41-3.38.47-.43,2.18c-.08.42-1.37.64-1.83.85l-.27,4.14Z"/>
        <path class="cls-1" d="M352.42,112.15l-11.32.02-.05-6.34c-2.74-1-3.11,2.25-6.64,2.72l-.32,3.62h-23.61s-.11-4.46-.11-4.46l-4.51-.26-.06-3.91-4.84-.16v-43.77s12.86-.04,12.86-.04l.05,37.79,4.1.25.47,2.73,12.51-.13c.81,0,2.5-.94,2.82-1.64s.36-2.2.43-3.65l5.44-.23.02-35.09h12.75s0,52.56,0,52.56Z"/>
        <path class="cls-1" d="M571.93,112.08l-11.76.13v-6.36c-1.88-.76-3.27,1.12-4.4,2.09-.41.35-1.84.71-2.33.95-.6.28-.67,1.66-.65,3.25l-23.64.05-.13-4.25-2.79-.5-.21-3.76h-5.07s.03-44.05.03-44.05l12.59-.02.02,37.12,1.4,3.55,15.5-.15c2.13-.02,3.26-3.47,2.94-5.13l5.94-.33v-35.06s12.57,0,12.57,0v52.49Z"/>
      </g>
      <polygon class="cls-1" points="189.92 116.72 189.16 121.91 182.82 121.99 182.71 111.7 177.28 111.71 177.19 100.12 188.47 100.16 188.69 104.33 195.87 104.4 195.84 116.39 189.92 116.72"/>
      <g>
        <polygon class="cls-1" points="271.17 158.25 256.74 158.25 256.75 162.78 276.8 162.78 276.75 168.55 249.79 168.55 249.82 142.94 276.65 142.85 276.78 148.64 256.76 148.6 256.72 152.81 271.1 152.78 271.17 158.25"/>
        <polygon class="cls-1" points="546.54 168.52 540.22 168.42 523.9 152.52 523.65 168.56 516.98 168.54 516.96 142.97 523.32 142.86 539.67 158.56 540.04 142.92 546.53 142.82 546.54 168.52"/>
        <polygon class="cls-1" points="348.75 168.48 342.72 168.55 325.86 152.57 325.72 168.55 319.05 168.51 319.08 142.98 325.26 142.82 342.01 158.6 342.12 142.9 348.75 142.98 348.75 168.48"/>
        <path class="cls-1" d="M411.6,162.79l.14-4.24-6.54.05.04-4.99,13.64-.02-.03,10.61-4.86,4.38-18.04-.05-5.54-4.75-.07-15.89,5.71-5.02h18.91s3.61,3.52,3.61,3.52v3.07s-6.91-.59-6.91-.59l-12.57-.29c-.75-.02-2.15,1.18-2.15,1.89l.08,10.37c0,.71,1.31,1.98,2.12,1.97l12.45-.02Z"/>
        <polygon class="cls-1" points="611.78 158.25 597.92 158.28 597.77 162.74 617 162.69 617.08 168.56 591.49 168.55 591.53 142.87 617.03 142.85 617.07 148.65 597.8 148.59 597.82 152.67 611.82 152.8 611.78 158.25"/>
        <polygon class="cls-1" points="475.5 168.57 461.64 168.55 461.67 163.32 465.11 162.98 465.16 148.6 461.66 148.16 461.68 142.89 475.45 142.85 475.48 148.25 471.81 148.37 471.83 163.07 475.43 163.22 475.5 168.57"/>
      </g>
      <polygon class="cls-1" points="112.28 183.05 99.43 183.14 99.39 169.73 112.27 169.67 112.28 183.05"/>
      <polygon class="cls-1" points="13.16 84.63 .08 84.73 0 71.53 13.16 71.54 13.16 84.63"/>
      <polygon class="cls-1" points="174.1 13.61 161.28 13.75 161.27 0 174.07 .03 174.1 13.61"/>
      <polygon class="cls-1" points="202.56 84.72 189.69 84.69 189.67 71.54 202.57 71.58 202.56 84.72"/>
    </g>
  </g>
</svg>